{
	"asset":{
		"generator":"Khronos glTF Blender I/O v3.6.27",
		"version":"2.0"
	},
	"extensionsUsed":[
		"KHR_materials_specular",
		"KHR_materials_ior"
	],
	"scene":0,
	"scenes":[
		{
			"name":"Scene",
			"nodes":[
				0,
				1,
				2,
				3,
				4
			]
		}
	],
	"nodes":[
		{
			"name":"Empty"
		},
		{
			"mesh":0,
			"name":"Grid",
			"translation":[
				-151.16062927246094,
				0,
				84.67827606201172
			]
		},
		{
			"mesh":1,
			"name":"Titanic",
			"translation":[
				59.76969909667969,
				3.11586856842041,
				-48.92359924316406
			]
		},
		{
			"mesh":2,
			"name":"Canada"
		},
		{
			"mesh":3,
			"name":"Longs",
			"rotation":[
				0.7071068286895752,
				0,
				0,
				0.7071068286895752
			],
			"translation":[
				-138.26239013671875,
				3.18143892288208,
				-101.56890869140625
			]
		}
	],
	"materials":[
		{
			"doubleSided":true,
			"name":"grid",
			"pbrMetallicRoughness":{
				"baseColorFactor":[
					0.30213645100593567,
					0.5457900166511536,
					0.7484014630317688,
					1
				],
				"metallicFactor":0,
				"roughnessFactor":0.5
			}
		},
		{
			"doubleSided":true,
			"extensions":{
				"KHR_materials_specular":{
					"specularColorFactor":[
						0,
						0,
						0
					]
				},
				"KHR_materials_ior":{
					"ior":1.4500000476837158
				}
			},
			"name":"SuperstructureWhite",
			"pbrMetallicRoughness":{
				"baseColorFactor":[
					0.9403900504112244,
					0.9403900504112244,
					0.9403900504112244,
					1
				],
				"metallicFactor":0,
				"roughnessFactor":0.5
			}
		},
		{
			"doubleSided":true,
			"name":"AntifoulingRed",
			"pbrMetallicRoughness":{
				"baseColorFactor":[
					0.5277172923088074,
					0.006444978062063456,
					0.0005206060595810413,
					1
				],
				"metallicFactor":0,
				"roughnessFactor":0.5
			}
		},
		{
			"doubleSided":true,
			"name":"HullBlack",
			"pbrMetallicRoughness":{
				"baseColorFactor":[
					0.01002145279198885,
					0.01002145279198885,
					0.01002145279198885,
					1
				],
				"metallicFactor":0,
				"roughnessFactor":0.5
			}
		},
		{
			"doubleSided":true,
			"extensions":{
				"KHR_materials_specular":{
					"specularColorFactor":[
						0,
						0,
						0
					]
				},
				"KHR_materials_ior":{
					"ior":1.4500000476837158
				}
			},
			"name":"DeckBeige",
			"pbrMetallicRoughness":{
				"baseColorFactor":[
					0.5173318982124329,
					0.3886522650718689,
					0.2928193509578705,
					1
				],
				"metallicFactor":0,
				"roughnessFactor":0.5
			}
		},
		{
			"doubleSided":true,
			"name":"FunnelYellow",
			"pbrMetallicRoughness":{
				"baseColorFactor":[
					0.8000000715255737,
					0.5478475689888,
					0.14029467105865479,
					1
				],
				"metallicFactor":0,
				"roughnessFactor":0.5
			}
		},
		{
			"doubleSided":true,
			"name":"grid",
			"pbrMetallicRoughness":{
				"baseColorFactor":[
					0.30213645100593567,
					0.5457900166511536,
					0.7484014630317688,
					1
				],
				"metallicFactor":0,
				"roughnessFactor":0.5
			}
		},
		{
			"doubleSided":true,
			"name":"text",
			"pbrMetallicRoughness":{
				"baseColorFactor":[
					0.5472832322120667,
					0.7696692943572998,
					0.8829224109649658,
					1
				],
				"metallicFactor":0,
				"roughnessFactor":0.5
			}
		}
	],
	"meshes":[
		{
			"name":"Plane",
			"primitives":[
				{
					"attributes":{
						"POSITION":0,
						"NORMAL":1,
						"TEXCOORD_0":2
					},
					"indices":3,
					"material":0
				}
			]
		},
		{
			"name":"Cube.002",
			"primitives":[
				{
					"attributes":{
						"POSITION":4,
						"NORMAL":5,
						"TEXCOORD_0":6
					},
					"indices":7,
					"material":1
				},
				{
					"attributes":{
						"POSITION":8,
						"NORMAL":9,
						"TEXCOORD_0":10
					},
					"indices":11,
					"material":2
				},
				{
					"attributes":{
						"POSITION":12,
						"NORMAL":13,
						"TEXCOORD_0":14
					},
					"indices":15,
					"material":3
				},
				{
					"attributes":{
						"POSITION":16,
						"NORMAL":17,
						"TEXCOORD_0":18
					},
					"indices":19,
					"material":4
				},
				{
					"attributes":{
						"POSITION":20,
						"NORMAL":21,
						"TEXCOORD_0":22
					},
					"indices":23,
					"material":5
				}
			]
		},
		{
			"name":"Plane.001",
			"primitives":[
				{
					"attributes":{
						"POSITION":24,
						"NORMAL":25,
						"TEXCOORD_0":26
					},
					"indices":27,
					"material":6
				}
			]
		},
		{
			"name":"Text",
			"primitives":[
				{
					"attributes":{
						"POSITION":28,
						"NORMAL":29,
						"TEXCOORD_0":30
					},
					"indices":31,
					"material":7
				}
			]
		}
	],
	"accessors":[
		{
			"bufferView":0,
			"componentType":5126,
			"count":8568,
			"max":[
				332.7977294921875,
				0,
				14.079503059387207
			],
			"min":[
				-10.0847806930542,
				-0.20637138187885284,
				-183.03353881835938
			],
			"type":"VEC3"
		},
		{
			"bufferView":1,
			"componentType":5126,
			"count":8568,
			"type":"VEC3"
		},
		{
			"bufferView":2,
			"componentType":5126,
			"count":8568,
			"type":"VEC2"
		},
		{
			"bufferView":3,
			"componentType":5123,
			"count":15708,
			"type":"SCALAR"
		},
		{
			"bufferView":4,
			"componentType":5126,
			"count":116,
			"max":[
				12.83224105834961,
				2.053466558456421,
				2.5976805686950684
			],
			"min":[
				-14.08047103881836,
				0.2483716458082199,
				-2.595461845397949
			],
			"type":"VEC3"
		},
		{
			"bufferView":5,
			"componentType":5126,
			"count":116,
			"type":"VEC3"
		},
		{
			"bufferView":6,
			"componentType":5126,
			"count":116,
			"type":"VEC2"
		},
		{
			"bufferView":7,
			"componentType":5123,
			"count":198,
			"type":"SCALAR"
		},
		{
			"bufferView":8,
			"componentType":5126,
			"count":60,
			"max":[
				12.004552841186523,
				-2.132929801940918,
				1.2993950843811035
			],
			"min":[
				-13.477829933166504,
				-3.7783524990081787,
				-1.2971760034561157
			],
			"type":"VEC3"
		},
		{
			"bufferView":9,
			"componentType":5126,
			"count":60,
			"type":"VEC3"
		},
		{
			"bufferView":10,
			"componentType":5126,
			"count":60,
			"type":"VEC2"
		},
		{
			"bufferView":11,
			"componentType":5123,
			"count":96,
			"type":"SCALAR"
		},
		{
			"bufferView":12,
			"componentType":5126,
			"count":267,
			"max":[
				12.632573127746582,
				5.669881820678711,
				2.4353950023651123
			],
			"min":[
				-14.00514030456543,
				-2.132930278778076,
				-2.433176040649414
			],
			"type":"VEC3"
		},
		{
			"bufferView":13,
			"componentType":5126,
			"count":267,
			"type":"VEC3"
		},
		{
			"bufferView":14,
			"componentType":5126,
			"count":267,
			"type":"VEC2"
		},
		{
			"bufferView":15,
			"componentType":5123,
			"count":423,
			"type":"SCALAR"
		},
		{
			"bufferView":16,
			"componentType":5126,
			"count":25,
			"max":[
				12.83224105834961,
				2.053466558456421,
				2.5976805686950684
			],
			"min":[
				-14.08047103881836,
				0.8012145757675171,
				-2.595461845397949
			],
			"type":"VEC3"
		},
		{
			"bufferView":17,
			"componentType":5126,
			"count":25,
			"type":"VEC3"
		},
		{
			"bufferView":18,
			"componentType":5126,
			"count":25,
			"type":"VEC2"
		},
		{
			"bufferView":19,
			"componentType":5123,
			"count":45,
			"type":"SCALAR"
		},
		{
			"bufferView":20,
			"componentType":5126,
			"count":128,
			"max":[
				5.3424272537231445,
				4.745480060577393,
				0.6397718191146851
			],
			"min":[
				-5.110606670379639,
				1.859618902206421,
				-0.6375551223754883
			],
			"type":"VEC3"
		},
		{
			"bufferView":21,
			"componentType":5126,
			"count":128,
			"type":"VEC3"
		},
		{
			"bufferView":22,
			"componentType":5126,
			"count":128,
			"type":"VEC2"
		},
		{
			"bufferView":23,
			"componentType":5123,
			"count":192,
			"type":"SCALAR"
		},
		{
			"bufferView":24,
			"componentType":5126,
			"count":374,
			"max":[
				13.52331829071045,
				-0.03998319059610367,
				-208.6357421875
			],
			"min":[
				-4.14150333404541,
				-0.1943652182817459,
				-232.338623046875
			],
			"type":"VEC3"
		},
		{
			"bufferView":25,
			"componentType":5126,
			"count":374,
			"type":"VEC3"
		},
		{
			"bufferView":26,
			"componentType":5126,
			"count":374,
			"type":"VEC2"
		},
		{
			"bufferView":27,
			"componentType":5123,
			"count":768,
			"type":"SCALAR"
		},
		{
			"bufferView":28,
			"componentType":5126,
			"count":2335,
			"max":[
				298.19879150390625,
				0,
				0.0618228055536747
			],
			"min":[
				0.3022448420524597,
				0,
				-5.0007781982421875
			],
			"type":"VEC3"
		},
		{
			"bufferView":29,
			"componentType":5126,
			"count":2335,
			"type":"VEC3"
		},
		{
			"bufferView":30,
			"componentType":5126,
			"count":2335,
			"type":"VEC2"
		},
		{
			"bufferView":31,
			"componentType":5123,
			"count":6933,
			"type":"SCALAR"
		}
	],
	"bufferViews":[
		{
			"buffer":0,
			"byteLength":102816,
			"byteOffset":0,
			"target":34962
		},
		{
			"buffer":0,
			"byteLength":102816,
			"byteOffset":102816,
			"target":34962
		},
		{
			"buffer":0,
			"byteLength":68544,
			"byteOffset":205632,
			"target":34962
		},
		{
			"buffer":0,
			"byteLength":31416,
			"byteOffset":274176,
			"target":34963
		},
		{
			"buffer":0,
			"byteLength":1392,
			"byteOffset":305592,
			"target":34962
		},
		{
			"buffer":0,
			"byteLength":1392,
			"byteOffset":306984,
			"target":34962
		},
		{
			"buffer":0,
			"byteLength":928,
			"byteOffset":308376,
			"target":34962
		},
		{
			"buffer":0,
			"byteLength":396,
			"byteOffset":309304,
			"target":34963
		},
		{
			"buffer":0,
			"byteLength":720,
			"byteOffset":309700,
			"target":34962
		},
		{
			"buffer":0,
			"byteLength":720,
			"byteOffset":310420,
			"target":34962
		},
		{
			"buffer":0,
			"byteLength":480,
			"byteOffset":311140,
			"target":34962
		},
		{
			"buffer":0,
			"byteLength":192,
			"byteOffset":311620,
			"target":34963
		},
		{
			"buffer":0,
			"byteLength":3204,
			"byteOffset":311812,
			"target":34962
		},
		{
			"buffer":0,
			"byteLength":3204,
			"byteOffset":315016,
			"target":34962
		},
		{
			"buffer":0,
			"byteLength":2136,
			"byteOffset":318220,
			"target":34962
		},
		{
			"buffer":0,
			"byteLength":846,
			"byteOffset":320356,
			"target":34963
		},
		{
			"buffer":0,
			"byteLength":300,
			"byteOffset":321204,
			"target":34962
		},
		{
			"buffer":0,
			"byteLength":300,
			"byteOffset":321504,
			"target":34962
		},
		{
			"buffer":0,
			"byteLength":200,
			"byteOffset":321804,
			"target":34962
		},
		{
			"buffer":0,
			"byteLength":90,
			"byteOffset":322004,
			"target":34963
		},
		{
			"buffer":0,
			"byteLength":1536,
			"byteOffset":322096,
			"target":34962
		},
		{
			"buffer":0,
			"byteLength":1536,
			"byteOffset":323632,
			"target":34962
		},
		{
			"buffer":0,
			"byteLength":1024,
			"byteOffset":325168,
			"target":34962
		},
		{
			"buffer":0,
			"byteLength":384,
			"byteOffset":326192,
			"target":34963
		},
		{
			"buffer":0,
			"byteLength":4488,
			"byteOffset":326576,
			"target":34962
		},
		{
			"buffer":0,
			"byteLength":4488,
			"byteOffset":331064,
			"target":34962
		},
		{
			"buffer":0,
			"byteLength":2992,
			"byteOffset":335552,
			"target":34962
		},
		{
			"buffer":0,
			"byteLength":1536,
			"byteOffset":338544,
			"target":34963
		},
		{
			"buffer":0,
			"byteLength":28020,
			"byteOffset":340080,
			"target":34962
		},
		{
			"buffer":0,
			"byteLength":28020,
			"byteOffset":368100,
			"target":34962
		},
		{
			"buffer":0,
			"byteLength":18680,
			"byteOffset":396120,
			"target":34962
		},
		{
			"buffer":0,
			"byteLength":13866,
			"byteOffset":414800,
			"target":34963
		}
	],
	"buffers":[
		{
			"byteLength":428668,
			"uri":"data:application/octet-stream;base64,"
		}
	]
}
